<svg width="48" height="27" viewBox="0 0 48 27" fill="none" xmlns="http://www.w3.org/2000/svg">
<path d="M33.9698 25.1782C29.058 26.4762 23.673 26.753 18.6361 26.1402C14.0702 25.5847 9.07982 24.1492 5.27245 21.5293C3.19225 20.0979 1.29373 18.1849 0.438976 15.7704C-0.143715 14.1245 -0.146659 12.3519 0.432205 10.7048C1.65971 7.21044 5.07106 4.73129 8.31281 3.18442C11.3364 1.7419 14.7536 0.83635 18.0749 0.3849C23.4057 -0.33989 29.1331 -0.0574374 34.3287 1.37157C37.8743 2.34677 41.6881 4.03648 44.3566 6.59617C45.6254 7.81355 46.6641 9.23433 47.2015 10.9196C47.6888 12.4483 47.6817 14.068 47.1829 15.5931C46.3747 18.0644 44.4461 20.0348 42.3406 21.494C39.8594 23.214 36.8894 24.4067 33.9698 25.1782ZM34.0142 23.9432C36.5117 23.2652 39.0526 22.26 41.2224 20.8551C43.2481 19.5436 45.1543 17.7513 45.9734 15.4382C46.4875 13.9869 46.4816 12.4292 45.9607 10.9802C45.1472 8.71733 43.2825 6.94681 41.3018 5.6483C37.8428 3.38046 33.3688 2.09695 29.2817 1.55556C25.5598 1.06267 21.7889 1.07119 18.0696 1.58407C13.8924 2.16014 9.26972 3.52507 5.80008 5.95632C3.92392 7.27099 2.20441 9.02859 1.50483 11.2506C0.831158 13.3906 1.30608 15.522 2.56304 17.3454C3.62124 18.8809 5.11287 20.1118 6.69959 21.0861C10.325 23.3125 14.8955 24.5219 19.1107 24.9907C24.0072 25.5353 29.2523 25.2358 34.0136 23.9429L34.0142 23.9432Z" fill="#EFEFEF"/>
<path d="M12.3321 17.2329L10.5941 17.2312L10.5946 13.4694L6.84322 13.4685L6.84352 17.2329L5.10604 17.2327V8.49756L6.8438 8.49344L6.84293 12.0721L10.5943 12.0715L10.5941 8.49638L12.3321 8.49432V17.2329Z" fill="#EFEFEF"/>
<path d="M31.2085 13.6881L33.8605 17.2289L31.8354 17.2351L29.4263 13.8268L29.4207 17.2309L27.7886 17.233L27.7889 8.49497L29.4216 8.49438L29.423 13.6349L31.6122 10.9186L33.557 10.923L31.2085 13.6881Z" fill="#EFEFEF"/>
<path d="M17.3074 16.0275C17.6039 15.8799 17.8207 15.6742 17.9322 15.3697H19.4607C19.342 15.8018 19.143 16.175 18.8538 16.4998C18.5179 16.8684 18.0992 17.1079 17.619 17.2557C15.9769 17.6993 14.1852 17.1649 13.5487 15.5002C13.246 14.709 13.2106 13.8302 13.4453 13.014C13.9417 11.2867 15.6669 10.4229 17.3764 10.8529C17.9797 11.0045 18.4867 11.3463 18.8686 11.8275C19.4512 12.5858 19.6585 13.5454 19.5999 14.498L14.926 14.4968C14.9437 15.1496 15.1925 15.7512 15.7988 16.0272C16.281 16.2223 16.8213 16.2415 17.3074 16.0275ZM17.964 13.4114C17.937 13.1283 17.8681 12.8906 17.7629 12.6554C17.6022 12.3236 17.3242 12.0841 16.9638 11.9956C16.2074 11.8213 15.4375 12.0341 15.1039 12.7556C15.0064 12.9661 14.9517 13.1827 14.9331 13.4134L17.964 13.4114Z" fill="#EFEFEF"/>
<path d="M36.3605 16.1253C37.111 16.2873 37.9142 16.083 38.1996 15.3688L39.7253 15.3697C39.4866 16.2811 38.8229 16.9721 37.9293 17.2398C37.2194 17.4515 36.4765 17.4588 35.7607 17.2678C34.8539 17.0132 34.1413 16.3743 33.8092 15.4896C33.1747 13.8002 33.7362 11.7222 35.4828 11.0007C36.5678 10.5524 37.9449 10.6773 38.8264 11.4915C39.6405 12.2662 39.9309 13.3837 39.8661 14.4982L35.1878 14.4973C35.2093 15.2736 35.5717 15.9554 36.3605 16.1253ZM38.2319 13.4137C38.1554 12.7885 37.9346 12.2251 37.3118 12.0194C36.5481 11.8051 35.739 12 35.3789 12.7312C35.2729 12.9464 35.2178 13.1709 35.1919 13.4122L38.2319 13.4137Z" fill="#EFEFEF"/>
<path d="M24.6046 12.6139C24.349 12.0178 23.7054 11.914 23.1053 12.0686C22.3996 12.2503 22.2191 12.9683 22.197 13.6564L22.1952 17.2339L20.5573 17.2324L20.5578 10.9189L22.1048 10.9203L22.1237 11.8159C22.482 11.2663 23.0073 10.8968 23.6577 10.7866C24.1647 10.7005 24.6864 10.7493 25.1702 10.9156C26.1044 11.2372 26.3589 12.1615 26.3924 13.0938L26.3948 17.233H24.7621L24.7615 13.4456C24.7486 13.1479 24.7174 12.8784 24.604 12.6136L24.6046 12.6139Z" fill="#EFEFEF"/>
<path d="M42.4563 17.2306L40.8239 17.2338V8.49461L42.456 8.49491L42.4563 17.2306Z" fill="#EFEFEF"/>
</svg>
