<svg width="37" height="48" viewBox="0 0 37 48" fill="none" xmlns="http://www.w3.org/2000/svg">
<path d="M27.846 8.38021C25.2331 5.34664 22.2931 2.61399 19.0803 0.23244C18.8652 0.0811476 18.609 0 18.3464 0C18.0839 0 17.8277 0.0811476 17.6125 0.23244C14.3997 2.61399 11.4597 5.34664 8.84681 8.38021C3.05916 15.07 0 22.1092 0 28.7368C0 33.6273 1.93292 38.3175 5.37354 41.7756C8.81416 45.2337 13.4806 47.1765 18.3464 47.1765C23.2122 47.1765 27.8787 45.2337 31.3193 41.7756C34.7599 38.3175 36.6928 33.6273 36.6928 28.7368C36.6928 22.1092 33.6337 15.07 27.846 8.38021ZM18.3464 44.6035C14.1611 44.5984 10.1487 42.9251 7.18932 39.9506C4.22988 36.9761 2.56504 32.9433 2.55996 28.7368C2.55996 15.9534 15.1465 5.38055 18.3464 2.89762C21.5464 5.38055 34.1328 15.9534 34.1328 28.7368C34.1278 32.9433 32.4629 36.9761 29.5035 39.9506C26.5441 42.9251 22.5317 44.5984 18.3464 44.6035ZM29.8492 30.6665C29.4223 33.0637 28.2751 35.2719 26.5618 36.9939C24.8485 38.7159 22.6514 39.869 20.2664 40.298C20.1958 40.3089 20.1245 40.3146 20.053 40.3152C19.7312 40.3165 19.4207 40.1959 19.1834 39.9774C18.9461 39.7589 18.7994 39.4586 18.7725 39.1363C18.7456 38.8139 18.8405 38.4932 19.0382 38.2381C19.236 37.9829 19.5222 37.812 19.8397 37.7594C23.5474 37.1333 26.694 33.9685 27.3233 30.2377C27.3799 29.901 27.5672 29.6008 27.8441 29.4029C27.9812 29.305 28.1361 29.2351 28.3001 29.1973C28.464 29.1596 28.6337 29.1546 28.7996 29.1828C28.9654 29.2109 29.1241 29.2716 29.2666 29.3614C29.4091 29.4512 29.5327 29.5684 29.6301 29.7062C29.7276 29.8439 29.7971 29.9997 29.8347 30.1644C29.8723 30.3292 29.8772 30.4998 29.8492 30.6665Z" fill="#A45D3B"/>
</svg>
