<svg width="37" height="35" viewBox="0 0 37 35" fill="none" xmlns="http://www.w3.org/2000/svg">
<path d="M18.9326 4.29575C18.9695 4.29201 19.0063 4.28983 19.0432 4.28916C19.5535 4.2844 20.0307 4.65824 20.1098 5.2217C20.165 5.61541 20.1469 6.03988 20.1469 6.43988L20.146 14.3647L23.7023 14.3693L24.6554 14.3677C25.0575 14.3659 25.495 14.3236 25.843 14.5801C26.0803 14.7523 26.2429 15.0227 26.2929 15.3287C26.3865 15.9029 26.0366 16.3773 25.7808 16.8464L19.0271 29.2843C18.6958 29.8942 18.4736 30.5641 17.7751 30.7022C17.194 30.7606 16.6584 30.3772 16.5829 29.7143C16.5447 29.3789 16.5608 29.0015 16.5608 28.6604L16.5614 26.7981C16.5611 24.7576 16.5408 22.6748 16.565 20.6374C15.3816 20.6292 14.1983 20.6275 13.0149 20.6322C12.6218 20.6326 11.6512 20.6581 11.2934 20.6038C11.1389 20.5804 10.9917 20.5179 10.8632 20.4214C10.6455 20.2608 10.4644 19.9887 10.4165 19.704C10.3712 19.447 10.4019 19.1807 10.5042 18.9437C10.6164 18.6874 10.8042 18.362 10.9411 18.1102L11.6634 16.7832L17.6402 5.77324C17.8028 5.47306 17.9752 5.13596 18.1513 4.8476C18.3664 4.49551 18.5591 4.3735 18.9326 4.29575ZM13.3464 18.2774L16.3452 18.2791C16.6333 18.2791 16.9216 18.2785 17.2126 18.2791C17.6649 18.2801 18.0601 18.2557 18.4005 18.6364C18.7428 19.0191 18.7129 19.4218 18.7136 19.9193C18.7141 20.2245 18.7134 20.5368 18.7132 20.8445L18.712 24.1481C18.712 24.3441 18.698 25.0778 18.7362 25.2198C18.8206 25.0956 19.0201 24.698 19.1052 24.54L19.8988 23.0749L22.1751 18.8834C22.5452 18.2018 22.9658 17.3727 23.3523 16.7232C22.0577 16.7037 20.7586 16.7293 19.4635 16.7213C19.0251 16.7185 18.6168 16.7332 18.2927 16.3511C18.1669 16.2041 18.0675 16.0433 18.0343 15.8367C17.9696 15.3516 17.9949 14.7487 17.995 14.2524L17.9961 11.2929C17.9963 10.8306 18.001 10.3553 17.9954 9.89237C17.9949 9.84916 17.9886 9.82299 17.9606 9.79206L13.8631 17.334C13.7124 17.6118 13.5071 18.0217 13.3464 18.2774Z" fill="#A45D3B"/>
<path d="M9.63675 0.00140509C10.392 -0.025202 10.6033 0.49639 10.9313 1.11697L12.1678 3.45503C12.3185 3.74023 12.6636 4.31855 12.7079 4.61301C12.8136 5.31565 12.3621 5.88534 11.7618 5.99327C10.9468 6.05883 10.7004 5.38326 10.3557 4.73194L9.07022 2.3038C8.91262 2.00581 8.69867 1.67269 8.65394 1.33129C8.61187 1.01642 8.68856 0.696412 8.86654 0.444212C9.07323 0.151866 9.31465 0.0485242 9.63675 0.00140509Z" fill="#A45D3B"/>
<path d="M24.9256 29.0104C25.763 28.9362 25.999 29.6029 26.3544 30.274L27.6264 32.6772C27.7841 32.9755 27.9967 33.307 28.0465 33.6469C28.1448 34.315 27.7207 34.8954 27.1176 34.9925C26.3295 35.0756 26.0752 34.4528 25.7431 33.8226L24.4768 31.4273C24.3203 31.1312 24.0531 30.6975 24.0024 30.3691C23.9529 30.0606 24.0192 29.7434 24.1863 29.4885C24.3734 29.203 24.6119 29.0645 24.9256 29.0104Z" fill="#A45D3B"/>
<path d="M26.9172 5.52879e-05C27.1731 -0.00185917 27.381 0.045553 27.5975 0.203574C27.8334 0.375504 27.9949 0.644779 28.0447 0.949295C28.1342 1.49509 27.8463 1.89627 27.6079 2.34732L26.3413 4.74106C26.0212 5.34474 25.8577 5.8643 25.1643 5.9938C24.6017 6.01663 24.0973 5.65857 24.0006 5.02987C23.9685 4.81189 23.9911 4.58853 24.066 4.38339C24.1246 4.21845 24.3031 3.90094 24.3924 3.73181L25.7027 1.25143C26.0467 0.600531 26.1735 0.11254 26.9172 5.52879e-05Z" fill="#A45D3B"/>
<path d="M11.5283 29.0092C12.3185 28.9527 12.9218 29.7025 12.6542 30.5568C12.5718 30.8197 12.3748 31.1424 12.2435 31.3909L10.9654 33.8088C10.6704 34.3681 10.4856 34.8905 9.83586 34.9926C9.57514 35.0237 9.31294 34.9501 9.09861 34.7852C8.69372 34.4775 8.52708 33.9123 8.71906 33.412C8.82513 33.1356 8.96489 32.8932 9.10193 32.6338L10.3614 30.2532C10.6755 29.6587 10.8398 29.1258 11.5283 29.0092Z" fill="#A45D3B"/>
<path d="M0 17.2502C0.0680513 17.1312 0.0899388 17.0092 0.1493 16.898C0.518504 16.2065 1.21362 16.3239 1.84002 16.3242L4.33031 16.3234C4.70524 16.3235 5.15506 16.2802 5.4874 16.4922C5.73089 16.6456 5.90795 16.8987 5.9791 17.1953C6.0521 17.5014 6.00999 17.8267 5.86208 18.0986C5.47156 18.8011 4.78256 18.6757 4.12939 18.6762L1.68306 18.6768C1.27679 18.6768 0.836332 18.7259 0.479921 18.4756C0.145505 18.2408 0.167934 18.0386 0 17.7344V17.2502Z" fill="#A45D3B"/>
<path d="M36.7066 17.7091C36.6473 17.8425 36.6146 17.9664 36.5421 18.1002C36.3587 18.4382 36.0415 18.6544 35.6766 18.6634C34.5124 18.6923 33.3439 18.6685 32.1792 18.6773C31.9292 18.6792 31.6512 18.6876 31.4132 18.6034C30.5005 18.2844 30.4452 16.8594 31.3065 16.4359C31.6258 16.279 32.126 16.3235 32.4888 16.325L34.9163 16.3232C35.4902 16.3228 36.1626 16.2342 36.5164 16.8433C36.5998 16.9869 36.6482 17.1291 36.7066 17.2852V17.7091Z" fill="#A45D3B"/>
</svg>
