<svg width="18" height="17" viewBox="0 0 18 17" fill="none" xmlns="http://www.w3.org/2000/svg">
<path d="M12.6935 10.9155C12.3262 10.7058 11.9455 10.6396 11.6217 10.7294C11.3786 10.7968 11.1805 10.9506 11.0471 11.1747C10.753 11.5264 10.3884 11.9368 10.3006 12.0005C9.61765 12.4625 9.07588 12.4078 8.48745 11.8193L5.17921 8.51109C4.5902 7.92208 4.53606 7.37973 4.99747 6.69885C5.06199 6.60956 5.47242 6.24521 5.82381 5.95143C6.04789 5.81778 6.20169 5.61991 6.26909 5.37653C6.35867 5.05308 6.29242 4.6726 6.08101 4.30192C6.03118 4.21666 4.84568 2.20799 3.75234 1.62992C3.19675 1.33643 2.5268 1.43695 2.08296 1.88108L1.35225 2.6118C-0.779415 4.74374 -0.384823 7.39183 2.49339 10.2698L6.72878 14.5054C8.03611 15.8131 9.30284 16.6155 10.4927 16.8906C10.8083 16.9634 11.1177 17 11.4213 17C12.4918 17 13.4861 16.5469 14.3867 15.6463L15.1175 14.9156C15.5613 14.4717 15.6624 13.8009 15.3686 13.2462C14.7903 12.1531 12.7819 10.9671 12.6935 10.9155ZM14.7102 14.508L13.9795 15.2387C12.0877 17.1305 9.78499 16.7471 7.13604 14.0979L2.90066 9.86221C0.251708 7.21354 -0.132227 4.91109 1.75951 3.01877L2.49023 2.28806C2.65325 2.12504 2.8684 2.03978 3.08643 2.03978C3.22094 2.03978 3.35689 2.07204 3.48275 2.13886C4.4315 2.64089 5.57265 4.57381 5.58216 4.59023C5.71148 4.8169 5.76073 5.05337 5.71378 5.22273C5.68498 5.32642 5.62075 5.40533 5.51677 5.46351L5.47357 5.49347C5.22789 5.69854 4.6432 6.19452 4.52079 6.37511C4.34452 6.63548 4.22758 6.89125 4.16623 7.14269C3.96145 6.73427 3.79612 6.26134 3.74169 5.73685C3.72498 5.57872 3.58414 5.46611 3.42515 5.47993C3.26702 5.49664 3.1521 5.63806 3.16823 5.79647C3.37619 7.7991 4.93382 9.10269 4.99977 9.15713C5.00697 9.16317 5.01561 9.16519 5.0231 9.17037L8.07961 12.2269C8.09257 12.2398 8.10582 12.2511 8.11878 12.2635C8.12886 12.2784 8.13548 12.2949 8.14873 12.3081C8.20317 12.362 9.50359 13.6235 11.4895 13.8297C11.4996 13.8306 11.5097 13.8312 11.5195 13.8312C11.6652 13.8312 11.7902 13.7209 11.8058 13.5731C11.8222 13.4147 11.707 13.2733 11.5488 13.2566C10.9397 13.1935 10.4002 13.0149 9.95061 12.8078C10.1712 12.7416 10.3956 12.6315 10.6229 12.4775C10.8034 12.3548 11.2994 11.7706 11.5042 11.525L11.5342 11.4815C11.5923 11.3781 11.6713 11.3136 11.7749 11.2845C11.9434 11.2387 12.1805 11.2865 12.4043 11.4141C12.9455 11.7315 14.4415 12.7275 14.8585 13.5155C15.0339 13.8456 14.974 14.2442 14.7102 14.508Z" fill="#A45D3B"/>
<path d="M7.88087 0C7.72159 0 7.59285 0.128746 7.59285 0.288023C7.59285 0.4473 7.72159 0.576047 7.88087 0.576047C12.7462 0.576047 16.7045 4.53435 16.7045 9.39964C16.7045 9.55892 16.8332 9.68766 16.9925 9.68766C17.1518 9.68766 17.2805 9.55892 17.2805 9.39964C17.2805 4.21666 13.0638 0 7.88087 0Z" fill="#A45D3B"/>
<path d="M7.88087 2.60085C11.6298 2.60085 14.6794 5.65073 14.6794 9.39935C14.6794 9.55863 14.8081 9.68738 14.9674 9.68738C15.1267 9.68738 15.2554 9.55863 15.2554 9.39935C15.2554 5.33304 11.9472 2.0248 7.88087 2.0248C7.72159 2.0248 7.59285 2.15355 7.59285 2.31283C7.59285 2.4721 7.72159 2.60085 7.88087 2.60085Z" fill="#A45D3B"/>
<path d="M7.88087 4.62566C10.5134 4.62566 12.6549 6.7674 12.6549 9.39964C12.6549 9.55892 12.7836 9.68766 12.9429 9.68766C13.1022 9.68766 13.2309 9.55892 13.2309 9.39964C13.2309 6.44971 10.8308 4.04961 7.88087 4.04961C7.72159 4.04961 7.59285 4.17835 7.59285 4.33763C7.59285 4.49691 7.72159 4.62566 7.88087 4.62566Z" fill="#A45D3B"/>
</svg>
