<svg width="214" height="92" viewBox="0 0 214 92" fill="none" xmlns="http://www.w3.org/2000/svg">
<path d="M144.841 0C145.759 0.148758 153.746 4.08689 155.342 4.84793L183.55 18.2948L204.213 28.0634C206.249 29.0409 210.714 30.9813 212.455 32.0019C212.32 44.085 212.438 56.4014 212.438 68.5062L212.433 81.0579C212.427 83.6694 212.343 86.7279 212.525 89.3035C213.255 90.3642 213.113 90.5741 213.01 91.9007L66.6715 91.9294L0 91.9237L0.14646 89.545L1.97611 89.5177C1.94622 83.6852 1.80536 77.1255 1.9912 71.3477C8.11759 70.7325 14.791 69.7365 20.8429 69.3283C20.6515 65.6948 20.7954 60.7707 20.7946 57.0468C20.7939 52.9965 20.6403 48.0136 20.8199 44.0375C23.616 42.9896 29.5502 41.6374 32.6694 40.8241L52.0318 35.6776L52.0176 28.4641C72.6679 22.3333 93.2759 16.0605 113.84 9.6467C120.702 7.48504 127.575 5.35845 134.46 3.26707C137.131 2.42857 142.352 0.552201 144.841 0ZM54.7218 30.5428L54.7123 53.3415C54.7123 57.1718 54.8403 61.968 54.6474 65.7222C60.6661 64.9115 65.1934 64.2446 71.2527 65.2953C76.5821 66.218 82.6103 66.2741 87.9203 67.2442C87.8818 64.3021 87.7593 60.982 87.8395 58.0715C91.4066 57.7467 95.3697 57.6188 98.9741 57.4449C102.852 57.2264 106.733 57.0381 110.614 56.8786C112.508 56.7061 114.615 56.5351 116.512 56.4417C116.568 67.4167 116.397 78.57 116.544 89.5177C118.009 89.4933 119.41 89.4674 120.877 89.5191C120.69 86.4534 120.775 82.7251 120.834 79.6292C120.975 72.0649 120.63 64.2921 120.864 56.7579C125.048 56.5897 129.211 56.2577 133.423 56.0996L133.416 89.5076C136.525 89.4573 140.02 89.4128 143.134 89.5076C142.908 87.6952 143.013 83.4078 143.013 81.4244L143.017 66.0973L143.007 14.9227C143.007 13.8575 143.115 3.58758 143.013 3.32514C121.556 10.1058 100.063 16.7729 78.5359 23.3258C70.9224 25.6887 62.1773 27.9736 54.7218 30.5428ZM145.725 89.4904C150.715 89.4616 155.705 89.4645 160.694 89.499C160.575 78.6346 160.775 67.73 160.688 56.8628C160.67 54.4122 160.581 51.5722 160.789 49.1604C162.455 49.1163 166.031 49.5988 167.823 49.7971L180.395 51.2258C180.622 50.0573 180.142 47.9528 180.524 46.8654L180.702 46.9035C181.144 47.7127 181.063 50.3361 180.954 51.3092C181.638 51.2919 184.96 51.7504 185.826 51.8539C188.707 52.1801 191.588 52.4906 194.472 52.7867C194.347 56.0565 194.426 59.71 194.43 63.0043L194.431 79.5286C194.433 81.3453 194.572 88.1997 194.357 89.5048C199.151 89.315 204.902 89.4674 209.767 89.4947C209.641 87.2957 209.701 84.6568 209.698 82.4334V70.1245L209.712 33.6778L166.438 13.1335C159.572 9.87135 152.479 6.62355 145.705 3.19248C145.494 7.76331 145.66 13.8269 145.657 18.5212L145.673 48.8751L145.66 74.731C145.652 79.2972 145.486 85.0047 145.725 89.4904ZM130.789 89.5004L130.764 67.7947L130.868 67.4742C130.625 66.0384 130.786 60.3525 130.773 58.5085C128.676 58.6781 125.429 58.8807 123.349 58.8663C123.489 68.6456 123.533 79.7183 123.38 89.5163C125.849 89.4544 128.318 89.4487 130.789 89.5004ZM163.169 89.5148C168 89.4559 172.831 89.4386 177.661 89.4631C182.358 89.4631 187.205 89.407 191.889 89.5105C191.833 87.4998 191.859 85.6227 191.896 83.6105C188.73 83.4783 185.628 83.5329 182.473 83.4581L163.138 82.9666L163.169 89.5148ZM23.7462 68.9287C32.0011 67.9025 40.3823 67.2615 48.6466 66.2309C49.7401 66.0944 50.9301 65.9766 52.0284 65.9205C52.0276 62.8591 52.1773 38.967 51.9181 38.38L51.8065 38.3753L35.7494 42.6969C31.9137 43.737 27.2768 45.056 23.4178 45.8925L23.4421 62.6608C23.4428 63.6755 23.3677 68.2978 23.4885 68.864L23.7462 68.9287ZM191.88 81.4661C191.843 79.7068 191.846 77.9462 191.889 76.187L173.06 75.4252C169.828 75.2829 166.348 75.0242 163.135 74.9883C163.139 76.8553 163.103 78.9135 163.175 80.7633C167.225 80.7316 171.359 80.8955 175.416 81.0162C180.861 81.18 186.452 81.1369 191.88 81.4661ZM163.152 57.2796C166.06 57.3457 169.19 57.728 172.099 57.9954C176.227 58.3389 180.352 58.714 184.474 59.1193C186.426 59.3105 190.007 59.7416 191.86 59.7862C191.859 58.1923 191.83 56.5265 191.872 54.9397C188.275 54.7098 183.791 54.0572 180.128 53.6246C174.453 52.9448 168.775 52.298 163.093 51.6843L163.152 57.2796ZM191.876 68.9575L172.11 67.697C170.141 67.5691 164.757 67.375 163.139 67.0847L163.122 72.8194C164.884 72.6613 169.625 73.0278 171.681 73.1313L183.031 73.6459C185.957 73.7896 188.962 74.0124 191.889 74.0382C191.797 72.4012 191.856 70.6089 191.876 68.9575ZM41.6742 89.499C41.6717 87.7067 41.7562 69.8011 41.5341 69.4504L41.3565 69.4749C35.455 70.1001 29.2911 70.8748 23.3891 71.2945C23.4243 73.1658 23.3553 89.1325 23.522 89.4731L23.8224 89.4933L41.6742 89.499ZM87.9141 69.4375C86.9266 69.5597 85.3017 69.4001 84.3205 69.196L84.3367 82.396C84.3303 84.3837 84.2225 87.6047 84.3764 89.5249C85.5053 89.4933 86.5489 89.4717 87.6771 89.4947L87.9064 89.3768C88.0119 88.3707 87.9121 84.4039 87.9125 83.1764L87.9141 69.4375ZM163.153 64.9805C166.498 64.9719 169.913 65.3743 173.234 65.5324C179.37 65.8271 185.78 66.4997 191.877 66.7498C191.859 65.1875 191.857 63.6252 191.87 62.0628L173.485 60.3956C170.277 60.1053 166.243 59.8796 163.112 59.4456L163.153 64.9805ZM20.6173 71.6121C15.8316 72.3279 9.36816 73.0738 4.57097 73.4906C4.599 77.0953 4.60317 80.7 4.58362 84.3032C4.58218 85.7132 4.51262 88.0603 4.62875 89.4013C5.07689 89.5594 5.38619 89.5048 5.86006 89.4832C10.8159 89.4832 15.878 89.43 20.8254 89.5062C20.6646 87.7067 20.7773 84.8566 20.7837 82.9335L20.8122 71.6437L20.6173 71.6121ZM65.984 67.112C65.957 74.4895 65.8856 82.1502 65.9776 89.5148C67.673 89.4832 81.2036 89.6269 81.8254 89.407C81.8442 89.2115 81.8685 89.0348 81.8685 88.8393C81.8332 82.2278 81.8411 75.6149 81.8924 69.0035C78.6598 68.8065 74.8931 68.177 71.633 67.8163C70.5434 67.6955 66.8898 67.3118 65.984 67.112ZM63.1926 67.1839L49.8285 68.555C48.161 68.7275 45.9152 69.0523 44.3111 69.1457C44.5301 73.8384 44.2248 78.9796 44.3343 83.7025C44.3684 85.1742 44.2201 88.0675 44.3723 89.3955L44.5624 89.4976C50.5917 89.4573 57.4473 89.3352 63.4439 89.5177C63.4343 87.0729 63.6091 67.6107 63.3238 67.1479L63.1926 67.1839ZM113.556 59.1351L90.5466 60.2936C90.3407 62.116 90.494 66.0182 90.4958 68.0247L90.4894 83.1879C90.4903 84.2716 90.5839 88.7114 90.441 89.5048C97.8969 89.3768 106.558 89.3582 114.009 89.5033C113.951 82.3155 113.94 75.1291 113.977 67.9413C113.977 66.7484 114.118 59.4312 113.786 59.0877L113.556 59.1351Z" fill="#FEEECE"/>
<path d="M81.6833 26.3461C82.0633 26.2373 82.0374 26.2269 82.419 26.3149C82.812 27.344 82.5192 51.2631 82.5859 54.037C82.595 54.415 82.3857 54.5487 82.1359 54.7312C81.3438 54.7039 80.671 54.7025 79.8828 54.7169L79.8883 36.2229C79.8893 33.6464 80.0253 28.9639 79.7944 26.5282C80.3742 26.4507 81.0894 26.4028 81.6833 26.3461Z" fill="#FEEECE"/>
<path d="M75.8908 28.2517C76.1811 28.7139 76.0332 50.4769 76.1209 53.1847C75.2884 53.2494 74.4564 53.3213 73.6252 53.4003C73.4527 52.7047 73.5143 46.7966 73.5266 45.5309C73.5828 39.8124 73.4691 34.0081 73.5682 28.2999C74.274 28.323 75.1706 28.2721 75.8908 28.2517Z" fill="#FEEECE"/>
<path d="M63.7251 34.3857L64.07 34.4714C64.4126 35.0881 64.3129 38.1511 64.1884 38.9142C63.8407 39.1224 63.0748 39.0284 62.6292 39.0146L62.2508 39.0162C61.8709 38.469 62.054 35.5031 62.0566 34.6633C62.5863 34.5598 63.1865 34.475 63.7251 34.3857Z" fill="#FEEECE"/>
<path d="M152.933 68.0275C153.485 68.0663 154.367 67.9887 154.945 67.957C154.905 70.6059 155.034 74.4737 154.883 77.2232C154.803 77.308 154.722 77.3927 154.64 77.4775L152.359 77.4431C152.352 76.2041 152.168 68.7648 152.529 68.1036L152.933 68.0275Z" fill="#FEEECE"/>
<path d="M202.965 67.2988C203.604 67.3893 204.582 67.3117 205.253 67.2844C205.109 69.7752 205.165 73.9318 205.286 76.4269C204.559 76.4873 203.609 76.4686 202.863 76.4744C202.782 75.1061 202.656 68.2776 202.965 67.2988Z" fill="#FEEECE"/>
<path d="M43.4158 47.029C43.8209 46.9751 43.6875 46.9791 44.0917 47.0395C44.1887 47.248 44.1781 56.6127 44.255 57.8603C43.495 57.9393 42.7006 57.9968 41.9367 58.063C41.8623 58.0529 41.6961 57.9767 41.6174 57.9451C41.2665 56.7938 41.4994 49.0919 41.425 47.1713L43.4158 47.029Z" fill="#FEEECE"/>
<path d="M31.9473 51.0964L32.0912 51.0691L32.2408 51.2071C32.201 53.5671 32.2327 55.9271 32.1872 58.2986C31.196 58.3058 30.7746 58.3374 29.7957 58.4869C29.4272 57.9306 29.5997 52.2649 29.6086 51.1668C30.4586 51.2459 31.1025 51.164 31.9473 51.0964Z" fill="#FEEECE"/>
<path d="M51.3156 75.5186C52.2904 75.6034 54.2007 75.4251 54.865 75.9771L54.7836 76.2214L54.1659 76.4844C53.7504 77.1556 53.9125 80.7459 54.0488 81.683C54.0886 81.9576 54.7111 82.1114 55.0623 82.2508L54.9597 82.4735C54.3852 82.9881 52.193 82.8544 51.3087 82.853C51.2889 80.4082 51.2912 77.9634 51.3156 75.5186Z" fill="#FEEECE"/>
<path d="M34.1761 76.2229L34.2928 76.3048C34.5954 77.3009 34.4857 82.3256 34.4827 83.6766C33.2185 83.6421 31.1205 83.53 29.9432 83.7298C29.6731 83.2167 29.8837 77.482 29.7969 76.3091C31.0979 76.1985 32.7791 76.2761 34.1761 76.2229ZM32.9284 81.7478C32.9152 80.5103 33.1801 78.7726 32.6022 77.906C32.1822 77.6358 31.8388 77.7119 31.3267 77.7277C31.3217 78.9465 31.0075 80.8495 31.564 81.6386C32.0104 81.8872 32.4018 81.7866 32.9284 81.7478Z" fill="#FEEECE"/>
<path d="M72.0022 75.4871C73.0264 75.5604 74.1971 75.4741 75.2352 75.4238C75.1526 77.2736 75.0403 80.9171 75.3443 82.6418C74.0492 82.6864 73.0718 82.6777 71.7769 82.6188C71.8792 81.4417 71.7455 75.9743 72.0022 75.4871ZM73.8122 81.5524C73.8679 80.6641 74.0738 77.4087 73.5987 76.8266C73.3357 77.5754 73.315 80.9214 73.8122 81.5524Z" fill="#FEEECE"/>
<path d="M73.599 76.8264C74.074 77.4085 73.8682 80.6639 73.8125 81.5522C73.3153 80.9212 73.336 77.5752 73.599 76.8264Z" fill="#FEEECE"/>
<path d="M11.1179 78.3271C12.443 78.3343 13.7682 78.3242 15.0931 78.2998L15.0893 85.0636L11.1197 85.0435C11.069 82.9221 11.0328 80.4385 11.1179 78.3271Z" fill="#FEEECE"/>
<path d="M130.765 67.7947C129.544 67.8695 128.303 67.9801 127.103 67.7171C127.912 67.3808 130.012 67.1034 130.868 67.4742L130.765 67.7947Z" fill="#FEEECE"/>
</svg>
